<svg width="772" height="847" viewBox="0 0 772 847" fill="none" xmlns="http://www.w3.org/2000/svg">
<path d="M0 819.6C0 794.3 0.0999992 792.1 1.8 791.6C2.7 791.4 7.2 790.4 11.8 789.5C19.8 787.9 20.2 787.9 21.5 789.7C22.9 791.4 22.9 791.4 23 789.3C23 788 23.2 787 23.4 787C23.6 787 44.3 782.7 69.5 777.5L115.2 768H173.1H231.1L230.8 762.3L230.5 756.5L160.3 756.2L90 756V759.2C90 762.1 89.4 762.8 84.8 765.5C81.9 767.2 79.2 768.7 78.8 768.8C78.3 769 78 758.6 78 745.8V722.4L82.8 717.7L87.6 713H95.3H102.9L103.2 701.8L103.5 690.5H107H110.5L110.8 701.8L111.1 713.1L114.8 712.8C118.3 712.5 118.5 712.3 118.8 708.8L119.1 705H147H174.9L175.2 695.3L175.5 685.5L181.8 685.2L188 684.9V695V705H200.3C207 705 252.7 705 301.7 705L391 704.9L390.9 759.6C390.9 789.6 391 814.4 391.2 814.6C391.4 814.8 395.5 811.8 400.3 807.9L409 800.9V768.4V735.8L414 730L419 724.2V526.3V328.3L389.8 318.6C352.7 306.3 350.9 305.5 347 299.3C342.6 292.3 336.7 273.8 336.7 266.9C336.7 258.5 340 252.4 346.9 248.3C357.2 242.2 379.7 233.6 388 232.6C390.5 232.3 399.7 231 408.5 229.6C445 223.9 451.9 223.6 523.6 226.1C550.2 227 555 227.4 564.1 229.6C569.7 230.9 574.9 232.5 575.6 233.1C576.3 233.7 577.3 233.9 577.8 233.6C578.2 233.4 585.6 235.1 594.1 237.5C602.5 239.9 609.5 241.8 609.6 241.7C610 241.1 614.1 212.8 613.9 212.5C613.2 212 593.9 206.2 582 203.1C560.4 197.4 540.8 195.5 487.7 194.4C455.9 193.7 444.6 194.3 419 198.1C383.1 203.5 355.9 211.5 340.8 221.1C333.9 225.6 332.2 228.7 333.1 235.8C334.1 243.9 334.2 254 333.2 254C332.2 254 328.1 240.4 322.4 218.5C318.3 202.7 318.4 201.5 324.2 185.2C327.6 175.9 328.3 175.2 342.4 167.1C353.2 161 363.2 156.7 374 153.7L382 151.5V147.8C382 143.4 383 142.4 397.7 131.3L407.2 124.2L420.9 121.6C448.9 116.3 452.9 115.9 478.9 116.1L503.5 116.2L503.8 112.9C504.9 101.4 508.7 51.4 508.5 51.2C508.3 51 494.8 50.9 478.5 50.9L448.7 51L428.6 55.1C417.6 57.3 405.9 59.8 402.8 60.5C394.3 62.4 369.7 76 368.4 79.4C368.1 80.2 370.1 89 373 98.9C376.9 112.9 378 118.2 377.8 122.5L377.5 128L369.7 105.8L361.8 83.7L362.2 69.5C362.4 58.9 362.9 54.9 364 53.5C364.8 52.6 371.4 47.8 378.7 43C391.9 34.3 392.1 34.1 405.2 31C440.6 22.6 444.5 22 465.5 22H485V16V10H456H427V5V0H495H563V5V10H533.5H504V16V22H507.9C512.2 22 539.7 27.5 555.1 31.4C562.1 33.1 570.2 36.5 585.2 43.9C602.6 52.5 607.1 55.2 615.1 61.9C620.3 66.2 625.6 70.9 626.9 72.3L629.3 75L627.5 83.7C626.5 88.6 625.2 93.1 624.7 93.8C624.1 94.6 623.7 96.4 623.8 97.8C623.9 99.3 620.7 113.4 616.6 129.2L609.3 157.8L628.4 166.1C658.5 179.1 657.8 178.7 661.5 183.9C663.4 186.4 666.7 191.9 668.9 196L672.8 203.5L670.4 217.2C669.1 224.8 667.7 231.8 667.1 232.7C666.6 233.7 666.2 236.1 666.2 238C666.1 242.4 658.9 277.6 654.9 293C653.1 300.1 651.2 305.3 649.8 306.7C644.5 312.3 620.7 322.1 595.7 329L584 332.2V489.1V646H604.7H625.5L644.7 665.2L664 684.5V712.2V740H711.5H759V742.2C759 744.3 759 744.3 761.2 742.4C763.5 740.5 763.5 740.5 761.8 742.5C760.2 744.4 760.4 747.2 765.9 795C769.1 822.8 771.5 845.8 771.3 846.3C771.1 846.7 597.4 847 385.4 847H0V819.6Z" fill="white"/>
</svg>
